# xmcd
#
# Track frame offsets: 
#        150
#        6450
#        25950
#        41925
#        62625
#        86400
#        108075
#        137550
#        155100
#        172350
#        199725
#        221550
#        244950
#        276675
#        300225
#
# Disc length: 4305 seconds
#
# Revision: 0
# Processed by: cddbd v1.5.1PL2 Copyright (c) Steve Scherf et al.
# Submitted via: ExactAudioCopy v0.95a3
#
DISCID=df10cf0f
DTITLE=Depeche Mode - Live in Copenhagen - 25.02.2006 CD1
DYEAR=2006
DGENRE=Disco
TTITLE0=Intro
TTITLE1=A Pain That I'm Used To
TTITLE2=John The Revelator
TTITLE3=A Question Of Time
TTITLE4=Policy Of Truth
TTITLE5=Precious
TTITLE6=Walking In My Shoes
TTITLE7=Suffer Well
TTITLE8=Damaged People
TTITLE9=Home
TTITLE10=I Want It All
TTITLE11=The Sinner In Me
TTITLE12=I Feel You
TTITLE13=Behind The Wheel
TTITLE14=World In My Eyes
EXTD=
EXTT0=
EXTT1=
EXTT2=
EXTT3=
EXTT4=
EXTT5=
EXTT6=
EXTT7=
EXTT8=
EXTT9=
EXTT10=
EXTT11=
EXTT12=
EXTT13=
EXTT14=
PLAYORDER=
